REM GENRE Christian
REM DATE 2021
PERFORMER Clap It Up Dan
TITLE Covers 2020–2021
FILE "clap_it_up_dan.mp3" MP3
  TRACK 00 AUDIO
    TITLE I'll Have a New Life
    PERFORMER Clap It Up Dan
    INDEX 01 00:00:00
  TRACK 01 AUDIO
    TITLE Where's John?
    PERFORMER Clap It Up Dan
    INDEX 01 02:59:00
  TRACK 02 AUDIO
    TITLE Just a Little Talk with Jesus
    PERFORMER Clap It Up Dan
    INDEX 01 06:29:00
  TRACK 03 AUDIO
    TITLE Rainbow of Love
    PERFORMER Clap It Up Dan
    INDEX 01 10:01:00
  TRACK 04 AUDIO
    TITLE I Can Tell You the Time
    PERFORMER Clap It Up Dan
    INDEX 01 14:08:00
  TRACK 05 AUDIO
    TITLE The Dream
    PERFORMER Clap It Up Dan
    INDEX 01 18:45:00
  TRACK 06 AUDIO
    TITLE Poor Wayfaring Stranger
    PERFORMER Clap It Up Dan
    INDEX 01 24:13:00
  TRACK 07 AUDIO
    TITLE After a While
    PERFORMER Clap It Up Dan
    INDEX 01 27:58:00
  TRACK 08 AUDIO
    TITLE Victory in Jesus
    PERFORMER Clap It Up Dan
    INDEX 01 30:09:00
  TRACK 09 AUDIO
    TITLE Papa
    PERFORMER Clap It Up Dan
    INDEX 01 34:32:00
  TRACK 10 AUDIO
    TITLE Old Time Religion
    PERFORMER Clap It Up Dan
    INDEX 01 37:59:00
  TRACK 11 AUDIO
    TITLE Just a Little Talk with Jesus / Rainbow of Love (Trap Version)
    PERFORMER Clap It Up Dan
    INDEX 01 41:01:00
  TRACK 12 AUDIO
    TITLE Old Time Religion (in the style of J.D. Sumner and the Stamps)
    PERFORMER Clap It Up Dan
    INDEX 01 45:40:00
  TRACK 13 AUDIO
    TITLE Meet You in the Morning
    PERFORMER Clap It Up Dan
    INDEX 01 48:36:00
  TRACK 14 AUDIO
    TITLE What a Beautiful Day
    PERFORMER Clap It Up Dan, JourneyDay
    INDEX 01 52:47:00
  TRACK 15 AUDIO
    TITLE There's a Light
    PERFORMER Clap It Up Dan
    INDEX 01 56:19:00
  TRACK 16 AUDIO
    TITLE I Just Feel Like Something Good Is about to Happen
    PERFORMER Clap It Up Dan
    INDEX 01 57:58:00
  TRACK 17 AUDIO
    TITLE Walk That Lonesome Road
    PERFORMER Clap It Up Dan
    INDEX 01 60:12:00
  TRACK 18 AUDIO
    TITLE He Made a Change
    PERFORMER Clap It Up Dan
    INDEX 01 63:29:00
  TRACK 19 AUDIO
    TITLE My Tribute
    PERFORMER Clap It Up Dan
    INDEX 01 67:19:00
  TRACK 20 AUDIO
    TITLE Arcoiris de Amor
    PERFORMER Clap It Up Dan
    INDEX 01 70:35:00
  TRACK 21 AUDIO
    TITLE Dummy track
    PERFORMER Clap It Up Dan
    INDEX 01 74:22:00
